<?xml version="1.0" encoding="UTF-8"?>
<!DOCTYPE svg PUBLIC "-//W3C//DTD SVG 1.1//EN" "http://www.w3.org/Graphics/SVG/1.1/DTD/svg11.dtd">
<!-- Creator: CorelDRAW 2021 (64-Bit) -->
<svg xmlns="http://www.w3.org/2000/svg" xml:space="preserve" width="71mm" height="10mm" version="1.1" style="shape-rendering:geometricPrecision; text-rendering:geometricPrecision; image-rendering:optimizeQuality; fill-rule:evenodd; clip-rule:evenodd"
viewBox="0 0 7100 1000"
 xmlns:xlink="http://www.w3.org/1999/xlink"
 xmlns:xodm="http://www.corel.com/coreldraw/odm/2003">
 <defs>
  <style type="text/css">
   <![CDATA[
    .str0 {stroke:black;stroke-width:20;stroke-linecap:round;stroke-linejoin:round;stroke-miterlimit:22.9256}
    .fil1 {fill:none}
    .fil0 {fill:black;fill-rule:nonzero}
   ]]>
  </style>
 </defs>
 <g id="Layer_x0020_1">
  <metadata id="CorelCorpID_0Corel-Layer"/>
  <path class="fil0" d="M1685.24 489.87c0,123.39 37.92,219.93 113.76,289.61 75.84,69.35 170.28,104.01 283.3,104.01 63.93,0 122.24,-12.06 174.96,-36.19 53.09,-24.14 96.43,-58.31 130.01,-102.49l-42.79 -34.17c-22.76,32.3 -55.25,59.15 -97.5,80.57 -42.26,21.42 -92.99,32.13 -152.22,32.13 -89.92,0 -163.23,-29.91 -219.92,-89.75 -56.7,-60.17 -85.4,-146.67 -86.14,-259.53 -0.71,-107.75 25.65,-188.82 79.09,-243.21 53.45,-54.73 126.04,-82.09 217.76,-82.09 37.92,0 73.68,5.78 107.25,17.34 33.59,11.22 61.41,27.53 83.43,48.95l54.17 -53.55c-31.06,-21.4 -68.44,-38.06 -112.14,-49.97 -43.33,-11.89 -88.28,-17.83 -134.87,-17.83 -115.93,0 -211.26,37.56 -286.01,112.68 -74.76,74.78 -112.14,169.28 -112.14,283.49zm566.07 -295.73l35.22 144.3 50.36 0 0 -227.92 -42.25 0 -43.33 83.62zm179.82 298.27c0,116.94 36.66,211.43 109.95,283.51 73.31,72.06 166.67,108.09 280.06,108.09 116.64,0 210.17,-38.07 280.59,-114.22 70.42,-76.48 105.64,-171.32 105.64,-284.51 0,-118.97 -35.58,-213.97 -106.73,-285.02 -71.13,-71.05 -164.83,-106.56 -281.12,-106.56 -116.29,0 -210.18,37.73 -281.69,113.18 -71.14,75.46 -106.7,170.65 -106.7,285.53zm103.46 -17.84c0,-103.33 24.38,-182.88 73.12,-238.61 49.12,-56.1 119.9,-84.14 212.35,-84.14 86.31,0 155.1,30.93 206.38,92.79 51.64,61.88 77.47,142.94 77.47,243.22 0,111.5 -24.21,196.3 -72.6,254.43 -48.02,57.79 -118.45,86.68 -211.25,86.68 -84.86,0 -153.67,-32.29 -206.39,-96.88 -52.72,-64.93 -79.08,-150.75 -79.08,-257.49zm754.58 394.14l314.18 0 0 -41.81 -110.5 -18.36 -1.08 -323.77 2.16 -321.73 15.17 -9.69 93.17 0c46.59,0 80.36,11.22 101.3,33.66 20.94,22.42 31.42,54.89 31.42,97.37 0,47.93 -12.11,86.01 -36.29,114.22 -23.84,28.21 -62.49,42.32 -115.93,42.32l-76.92 0 -59.05 -0.51 0 39.77c19.51,1.36 47.68,2.89 84.51,4.59 37.19,1.37 67.71,2.04 91.55,2.04 59.22,0 110.32,-19.04 153.3,-57.11 43.33,-38.41 65,-88.37 65,-149.9 0,-56.08 -17.88,-99.43 -53.62,-130.03 -35.41,-30.58 -90.29,-45.87 -164.68,-45.87l-333.69 0 0 47.42 106.17 17.33 1.08 315.61 -1.08 324.28 -106.17 18.36 0 41.81zm287.64 -388.53l238.89 355.9 35.74 32.63 136.51 0 0 -41.81c-19.85,-0.34 -42.24,-7.82 -67.16,-22.43 -24.57,-14.97 -52.91,-45.39 -85.05,-91.27l-180.39 -271.77 -78.54 38.75zm381.24 388.53l268.14 0 0 -41.81 -101.3 -15.29 69.33 -204.98 148.43 -386.49 156.55 388.53 70.95 202.43 -92.08 15.8 0 41.81 289.26 0 0 -41.81 -91.55 -17.85 -97.49 -241.16 -183.09 -468.08 -66.09 0 -185.27 492.55 -87.2 216.69 -98.59 17.85 0 41.81zm200.42 -238.62l392.73 0 -14.08 -50.99 -176.06 5.61 -183.63 -5.1 -18.96 50.48zm635.16 238.62l586.65 0 27.08 -209.05 -53.62 0 -57.97 163.68 -270.3 0 -28.17 -13.27 -1.08 -325.81 1.08 -315.61 124.05 -17.33 0 -47.42 -327.72 0 0 47.42 106.17 17.33 1.09 315.61 -1.09 326.33 -106.17 16.31 0 41.81z"/>
  <g id="_1841061690688">
   <rect class="fil1 str0" transform="matrix(0.645959 -0.608028 0.645959 0.608028 31.7343 529.72)" width="458.22" height="458.22"/>
   <rect class="fil1 str0" transform="matrix(0.645959 -0.608028 0.645959 0.608028 327.72 529.72)" width="458.22" height="458.22"/>
   <rect class="fil1 str0" transform="matrix(0.645959 -0.608028 0.645959 0.608028 623.705 529.72)" width="458.22" height="458.22"/>
  </g>
  <g id="_1841061690304">
   <rect class="fil1 str0" transform="matrix(0.645959 -0.608028 0.645959 0.608028 5847.78 529.72)" width="458.22" height="458.22"/>
   <rect class="fil1 str0" transform="matrix(0.645959 -0.608028 0.645959 0.608028 6143.77 529.72)" width="458.22" height="458.22"/>
   <rect class="fil1 str0" transform="matrix(0.645959 -0.608028 0.645959 0.608028 6439.75 529.72)" width="458.22" height="458.22"/>
  </g>
 </g>
</svg>
